<?xml version="1.0" standalone="no"?>
<!DOCTYPE svg PUBLIC "-//W3C//DTD SVG 20010904//EN"
 "http://www.w3.org/TR/2001/REC-SVG-20010904/DTD/svg10.dtd">
<svg version="1.0" xmlns="http://www.w3.org/2000/svg"
 width="16.000000pt" height="16.000000pt" viewBox="0 0 16.000000 16.000000"
 preserveAspectRatio="xMidYMid meet">
<metadata>
Created by potrace 1.11, written by Peter Selinger 2001-2013
</metadata>
<g transform="translate(0.000000,16.000000) scale(0.002286,-0.002286)"
fill="#000000" stroke="none">
<path d="M3299 6996 c-2 -2 -42 -6 -89 -9 -97 -7 -222 -22 -295 -37 -52 -10
-88 -17 -141 -26 -18 -3 -90 -21 -160 -40 -71 -19 -133 -36 -139 -37 -29 -8
-184 -61 -210 -72 -16 -7 -61 -25 -99 -39 -167 -65 -449 -216 -631 -340 -49
-33 -92 -63 -95 -66 -3 -3 -41 -32 -84 -65 -441 -333 -834 -838 -1065 -1368
-70 -162 -165 -439 -185 -541 -3 -12 -11 -50 -20 -86 -28 -119 -61 -332 -74
-475 -14 -160 -6 -634 13 -705 2 -8 6 -40 10 -71 3 -31 8 -67 10 -80 3 -13 7
-39 10 -58 2 -18 7 -41 9 -50 3 -9 8 -31 11 -49 3 -18 21 -92 39 -165 307
-1189 1237 -2143 2421 -2482 160 -45 372 -89 488 -101 34 -3 65 -8 68 -10 16
-9 236 -19 419 -18 293 0 490 13 535 33 11 5 54 14 95 21 344 55 778 216 1130
420 153 89 427 287 540 390 123 113 237 228 350 355 50 56 188 238 247 326
327 487 529 1064 581 1654 9 108 9 488 -1 600 -7 83 -23 208 -31 252 -2 10
-11 59 -20 108 -21 110 -76 325 -112 431 -320 958 -1028 1728 -1949 2122 -117
50 -286 113 -345 128 -8 2 -64 17 -125 34 -177 48 -296 70 -575 105 -51 7
-525 16 -531 11z m431 -240 c52 -4 106 -8 120 -10 14 -2 52 -6 85 -10 33 -4
80 -11 105 -16 25 -5 59 -11 75 -14 67 -10 227 -49 335 -82 106 -33 150 -49
300 -107 92 -36 299 -140 415 -210 102 -60 324 -210 335 -226 3 -4 14 -14 26
-22 53 -36 150 -124 274 -249 180 -180 254 -266 376 -439 52 -74 205 -324 201
-327 -3 -2 -228 -119 -357 -186 -266 -138 -421 -219 -575 -298 -88 -46 -209
-109 -270 -140 -60 -32 -177 -92 -260 -135 -82 -43 -199 -103 -260 -135 -60
-31 -182 -94 -270 -140 -88 -45 -214 -111 -280 -145 -66 -34 -210 -109 -320
-165 -110 -57 -204 -106 -210 -111 -8 -6 -744 -282 -1035 -388 -127 -47 -1246
-463 -1515 -564 -110 -41 -291 -108 -402 -149 l-202 -75 -25 76 c-48 149 -96
337 -110 442 -3 20 -7 42 -10 50 -3 8 -7 41 -10 74 -4 33 -8 71 -11 84 -23
118 -23 596 0 721 2 14 7 46 9 73 3 26 10 73 15 105 6 31 13 72 16 91 3 19 7
37 9 40 2 3 7 22 10 41 17 106 89 338 158 508 132 327 304 612 531 882 455
542 1050 908 1752 1079 44 11 96 23 115 26 19 3 60 10 90 15 30 5 78 12 105
16 28 3 61 7 75 9 14 2 77 7 140 10 63 4 116 8 117 9 5 4 249 -2 333 -8z
m2814 -2076 c69 -177 153 -474 171 -605 2 -16 6 -43 9 -60 2 -16 8 -55 12 -85
4 -30 8 -66 10 -80 22 -178 22 -554 -1 -710 -2 -14 -7 -49 -10 -79 -4 -30 -8
-61 -10 -70 -1 -9 -6 -36 -10 -61 -4 -25 -9 -54 -12 -65 -2 -11 -6 -31 -9 -45
-3 -14 -7 -33 -10 -42 -3 -10 -8 -30 -10 -45 -15 -84 -94 -326 -155 -474 -330
-803 -976 -1450 -1777 -1778 -163 -67 -398 -142 -518 -165 -10 -2 -54 -11 -96
-20 -42 -9 -86 -16 -97 -16 -22 0 -28 18 -36 125 -4 39 -8 77 -10 85 -2 8 -7
47 -11 85 -3 39 -8 78 -9 87 -2 9 -7 48 -10 85 -4 37 -8 75 -10 83 -2 8 -7 47
-10 85 -4 39 -8 81 -10 95 -2 14 -7 52 -10 85 -4 33 -8 71 -10 85 -9 65 -16
129 -20 170 -4 50 -13 127 -20 180 -3 19 -7 60 -10 90 -3 30 -8 73 -11 95 -7
58 -12 104 -18 160 -3 28 -10 91 -16 140 -6 50 -13 110 -16 135 -3 25 -7 59
-9 75 -2 17 -7 57 -10 90 -3 33 -8 74 -10 90 -6 48 -20 171 -30 260 -3 28 -7
66 -10 85 -3 19 -7 55 -10 80 -4 39 -11 102 -29 260 -3 19 -7 62 -11 95 -4 33
-10 85 -14 115 -4 30 -7 68 -6 83 0 31 -31 13 465 269 118 61 242 125 275 143
33 18 150 79 260 135 110 56 241 124 290 150 50 26 162 84 250 130 88 45 214
111 280 145 66 34 188 97 270 140 83 43 222 115 310 160 88 46 216 113 284
148 l125 65 17 -37 c10 -20 38 -88 63 -151z m-3083 -1357 c0 -5 2 -15 3 -23 2
-8 6 -44 10 -80 3 -36 8 -78 10 -95 2 -16 7 -59 11 -95 4 -36 9 -73 10 -82 2
-9 6 -49 10 -90 3 -40 8 -80 10 -88 2 -8 6 -43 9 -77 3 -33 8 -76 10 -95 6
-41 24 -196 31 -263 5 -49 11 -104 21 -175 3 -19 7 -57 9 -85 3 -27 7 -66 10
-85 2 -19 7 -60 10 -90 3 -30 10 -89 15 -130 5 -41 12 -100 15 -130 3 -30 8
-66 10 -80 2 -14 6 -54 10 -90 4 -36 8 -76 10 -90 4 -27 25 -205 30 -255 2
-16 6 -55 9 -85 4 -30 8 -71 10 -90 10 -95 17 -157 21 -180 3 -14 7 -56 11
-95 3 -38 7 -77 9 -85 2 -8 6 -46 10 -85 4 -38 9 -77 10 -85 2 -8 6 -44 10
-80 4 -36 9 -68 11 -72 8 -13 -15 -19 -103 -25 -155 -11 -442 -6 -573 12 -19
2 -55 7 -80 10 -335 42 -703 156 -1025 317 -527 264 -991 688 -1312 1202 -72
114 -235 438 -225 446 4 4 169 66 367 139 198 74 502 186 675 251 173 65 446
166 605 225 160 58 308 113 330 122 153 60 962 361 973 362 6 1 12 -2 13 -6z"/>
</g>
</svg>
